<?xml version="1.0" standalone="no"?>
<!DOCTYPE svg PUBLIC "-//W3C//DTD SVG 20010904//EN"
 "http://www.w3.org/TR/2001/REC-SVG-20010904/DTD/svg10.dtd">
<svg version="1.0" xmlns="http://www.w3.org/2000/svg"
 width="1225.000000pt" height="1333.000000pt" viewBox="0 0 1225.000000 1333.000000"
 preserveAspectRatio="xMidYMid meet">

<g transform="translate(0.000000,1333.000000) scale(0.100000,-0.100000)"
fill="#000000" stroke="none">
<path d="M5925 13064 c-81 -19 -144 -38 -170 -50 -16 -7 -73 -23 -125 -34 -52
-11 -108 -24 -125 -28 -43 -10 -162 -74 -148 -79 7 -2 20 0 30 5 10 5 43 12
73 16 30 3 48 3 40 0 -8 -4 -32 -15 -53 -24 -20 -10 -55 -21 -77 -25 -39 -7
-109 -47 -142 -82 -10 -10 -45 -46 -79 -81 -34 -34 -59 -65 -56 -68 3 -4 36 9
73 27 71 34 156 50 168 30 5 -7 -4 -11 -26 -11 -85 -1 -145 -32 -133 -71 4
-13 -3 -18 -36 -23 -64 -10 -146 -57 -133 -77 3 -5 -1 -9 -9 -9 -20 0 -60 -47
-52 -60 4 -7 4 -15 -1 -19 -10 -7 -54 -68 -54 -75 0 -2 18 1 40 6 23 6 44 7
48 4 4 -4 -20 -33 -53 -64 -32 -31 -60 -63 -61 -70 -2 -8 -10 -22 -18 -31 -9
-10 -14 -25 -11 -33 3 -8 -1 -21 -10 -28 -8 -7 -15 -16 -15 -21 0 -12 47 -11
55 1 3 6 13 10 21 10 12 0 12 -5 -2 -32 -9 -18 -30 -49 -45 -68 -16 -19 -29
-40 -29 -46 0 -7 -6 -15 -12 -18 -9 -3 -7 -10 7 -22 13 -11 16 -18 8 -21 -7
-2 -10 -10 -7 -17 3 -7 -11 -25 -31 -40 -21 -16 -35 -36 -35 -48 0 -21 0 -21
25 2 28 27 46 19 27 -11 -10 -16 -10 -24 -1 -35 9 -11 8 -18 -5 -32 -9 -10
-16 -23 -16 -29 0 -6 -7 -16 -16 -24 -8 -7 -13 -21 -10 -32 2 -11 -4 -42 -15
-69 -20 -51 -27 -136 -9 -108 5 8 10 27 10 41 0 14 9 34 20 44 19 17 20 17 20
0 0 -28 -22 -95 -32 -95 -4 0 -8 -5 -8 -11 0 -7 -7 -17 -15 -23 -13 -9 -18
-55 -26 -246 -6 -129 -8 -248 -5 -263 3 -16 16 -43 28 -60 15 -20 21 -42 19
-64 -2 -24 2 -33 13 -33 21 0 24 -8 41 -101 13 -77 13 -84 -4 -106 -16 -19
-17 -30 -10 -64 6 -23 16 -50 23 -60 12 -18 13 -18 34 1 20 19 20 26 15 237
-2 120 -5 241 -7 268 -3 65 -36 218 -50 227 -7 4 -6 14 1 30 16 33 25 178 13
194 -8 8 -8 14 0 19 5 3 10 -2 10 -11 0 -11 3 -14 8 -8 16 17 31 89 29 134 -1
29 3 49 12 56 10 7 12 17 6 30 -9 21 -7 47 5 54 4 3 10 28 13 55 12 101 29
200 38 215 5 8 16 28 25 43 15 28 15 29 -7 22 -21 -7 -22 -6 -7 9 9 9 21 16
26 16 5 0 41 25 81 56 39 31 89 66 110 78 22 11 72 40 112 62 67 38 172 83
224 98 11 3 106 8 212 10 154 5 197 3 219 -9 17 -8 33 -11 43 -5 8 4 25 4 37
0 16 -6 26 -5 34 6 15 17 42 18 58 2 8 -8 14 -4 23 16 8 17 15 22 20 15 5 -9
13 -7 30 5 31 22 49 20 49 -4 0 -21 15 -27 25 -10 9 15 41 12 54 -4 9 -11 20
-12 44 -5 17 5 47 6 64 3 18 -3 33 -2 33 3 0 5 7 18 15 29 14 19 14 19 30 -3
20 -28 33 -28 65 -3 14 11 33 20 43 20 11 0 33 10 50 22 18 13 43 21 61 20 67
-5 210 -114 313 -237 32 -39 67 -79 78 -91 44 -43 75 -93 91 -145 9 -30 25
-75 35 -101 11 -26 19 -57 19 -69 0 -12 6 -30 14 -38 7 -9 20 -38 28 -66 9
-27 29 -91 46 -141 20 -63 27 -96 20 -107 -6 -11 -4 -26 7 -46 35 -69 43 -150
44 -431 1 -151 3 -291 5 -310 7 -76 19 -146 28 -162 11 -23 28 -23 28 0 0 10
5 23 11 29 9 9 9 19 1 40 -13 33 -14 151 -1 159 12 7 11 64 -1 64 -5 0 -10 5
-10 11 0 5 4 8 8 5 13 -8 59 44 76 86 12 28 15 76 15 215 -1 98 -1 192 -1 208
1 17 -3 41 -8 55 -17 49 -20 90 -7 87 7 -1 11 8 9 23 -1 14 -3 41 -5 60 -2 36
-73 154 -87 145 -4 -2 -5 7 -2 20 2 14 11 25 18 25 24 0 15 38 -16 72 l-29 33
-1 -25 c-1 -22 -2 -23 -11 -7 -5 9 -7 21 -4 27 8 14 -13 134 -25 138 -5 2 -10
24 -10 48 0 24 -4 44 -10 44 -14 0 -37 60 -46 117 -4 26 -18 70 -32 98 -39 78
-63 155 -68 220 -2 33 -9 64 -15 70 -8 7 -9 3 -4 -12 9 -33 -23 -31 -35 2 -5
14 -12 25 -15 25 -11 0 -4 -39 8 -52 27 -26 37 -54 25 -66 -7 -7 -18 -12 -26
-12 -12 0 -12 3 -2 15 10 12 10 19 2 27 -7 7 -12 8 -12 3 0 -5 -12 2 -26 16
l-27 24 6 -23 c5 -23 5 -23 -13 -7 -11 10 -17 21 -15 25 3 4 -7 15 -21 25 -14
9 -38 45 -54 79 -48 103 -112 178 -220 257 -55 41 -137 79 -154 73 -9 -3 -16
-2 -16 2 0 22 -154 72 -260 84 -41 5 -104 18 -140 30 -63 20 -230 35 -275 24z
m-508 -250 c-3 -3 -12 -4 -19 -1 -8 3 -5 6 6 6 11 1 17 -2 13 -5z m1418 -194
c14 -27 21 -50 16 -50 -8 0 -51 78 -51 93 0 17 12 3 35 -43z m475 -739 c0 -3
-4 -12 -9 -19 -6 -11 -9 -9 -13 5 -3 12 0 20 8 20 8 0 14 -3 14 -6z m-86 -26
c3 -8 1 -15 -4 -15 -6 0 -10 7 -10 15 0 8 2 15 4 15 2 0 6 -7 10 -15z m66
-107 c0 -17 -3 -18 -15 -8 -8 7 -15 21 -15 32 0 17 3 18 15 8 8 -7 15 -21 15
-32z"/>
<path d="M7040 12561 c10 -21 30 -37 30 -26 0 14 -21 45 -31 45 -6 0 -6 -7 1
-19z"/>
<path d="M4830 12200 c-6 -12 -9 -24 -7 -27 3 -2 11 5 17 17 6 12 9 24 7 27
-3 2 -11 -5 -17 -17z"/>
<path d="M6560 11204 c-21 -8 -62 -25 -80 -34 -25 -12 -69 -83 -70 -111 0 -22
4 -26 25 -24 16 2 25 -2 25 -11 0 -8 -5 -14 -11 -14 -12 0 -58 -34 -97 -73
-32 -31 -64 -94 -60 -120 4 -28 40 -34 70 -13 12 9 36 16 53 16 22 0 43 13 83
51 95 90 192 116 318 84 38 -9 81 -23 96 -31 34 -18 74 -67 58 -72 -11 -4 -82
23 -142 54 -14 8 -41 14 -60 14 -41 0 -142 -25 -177 -45 -14 -7 -44 -22 -66
-33 -46 -22 -105 -79 -105 -101 0 -12 3 -12 12 -3 7 7 21 12 33 12 11 0 39 20
63 45 23 25 48 45 56 45 8 0 17 -15 20 -34 4 -19 12 -38 19 -43 6 -5 47 -10
89 -11 86 -2 98 6 98 67 0 16 4 33 10 36 11 7 90 -31 90 -44 0 -4 13 -8 30 -7
21 1 30 6 30 18 0 11 6 15 20 11 27 -7 25 7 -6 55 -36 55 -103 89 -200 102
-87 12 -124 24 -124 40 0 16 77 60 117 66 21 3 45 10 54 14 9 5 25 6 37 3 27
-7 29 13 2 22 -10 3 -31 20 -45 37 -25 30 -27 30 -138 34 -62 2 -119 1 -127
-2z m154 -343 c3 -5 -1 -14 -8 -20 -16 -13 -32 2 -21 19 8 12 22 13 29 1z"/>
<path d="M5520 11171 c-38 -26 -125 -61 -154 -61 -14 0 -26 -4 -26 -8 0 -5
-22 -23 -50 -41 -27 -18 -50 -37 -50 -42 0 -12 42 -11 77 2 70 27 242 18 295
-15 18 -11 25 -36 11 -36 -24 0 -127 -21 -175 -35 -64 -18 -171 -84 -187 -114
-9 -15 -7 -23 5 -35 9 -9 21 -13 27 -9 7 3 4 -3 -6 -14 -18 -21 -18 -21 10
-27 15 -3 51 -6 78 -8 46 -3 50 -1 50 20 1 23 19 42 42 42 6 0 16 -15 23 -34
6 -19 19 -36 30 -39 19 -5 159 7 164 14 1 2 7 16 14 32 15 36 29 34 76 -8 22
-19 47 -35 57 -35 10 0 26 -3 36 -7 11 -4 3 11 -22 40 -22 25 -46 46 -52 47
-7 0 -13 4 -13 8 0 5 -19 15 -42 22 -24 7 -54 16 -68 21 -32 11 -139 14 -165
4 -11 -4 -57 -23 -103 -43 -85 -37 -109 -37 -76 -1 38 42 101 77 179 99 72 20
85 21 130 10 52 -14 110 -46 160 -90 32 -28 107 -60 141 -60 26 0 54 30 54 57
0 19 -86 125 -116 145 -7 4 -15 28 -18 52 -10 61 -33 107 -52 99 -8 -3 -23 2
-34 12 -11 10 -37 19 -57 20 -21 1 -54 7 -73 13 -68 20 -94 21 -120 3z m92
-356 c0 -5 -5 -11 -11 -13 -6 -2 -11 4 -11 13 0 9 5 15 11 13 6 -2 11 -8 11
-13z"/>
<path d="M5855 11100 c3 -5 8 -10 11 -10 2 0 4 5 4 10 0 6 -5 10 -11 10 -5 0
-7 -4 -4 -10z"/>
<path d="M4730 10677 c0 -5 9 -20 20 -34 11 -14 20 -21 20 -15 0 12 -39 60
-40 49z"/>
<path d="M5530 10670 c0 -5 5 -10 11 -10 5 0 7 5 4 10 -3 6 -8 10 -11 10 -2 0
-4 -4 -4 -10z"/>
<path d="M5960 10039 c-64 -23 -69 -24 -94 -14 -17 7 -18 5 -11 -21 5 -16 10
-42 11 -59 1 -16 2 -34 3 -39 0 -4 12 -1 25 7 22 15 24 15 19 -3 -7 -27 -29
-43 -45 -34 -20 13 -51 4 -66 -18 -10 -14 -17 -17 -25 -9 -14 14 -54 14 -62 1
-3 -5 -2 -10 4 -10 6 0 8 -7 5 -15 -7 -17 21 -49 36 -40 5 3 10 13 10 21 0 18
26 18 37 0 4 -7 21 -15 36 -18 24 -5 30 -1 42 26 13 28 14 28 12 6 -2 -22 2
-25 41 -28 25 -2 42 1 42 7 0 16 42 14 83 -4 53 -22 135 -19 193 7 27 12 72
22 99 23 74 3 75 4 73 23 -3 41 3 58 21 59 11 1 25 -5 32 -13 6 -8 17 -14 24
-14 7 0 15 -7 19 -15 6 -17 26 -21 26 -5 0 13 -49 60 -63 60 -9 0 -9 2 -1 8
16 10 27 69 15 77 -6 3 -11 16 -11 28 0 21 -4 22 -79 22 -71 0 -82 -3 -106
-25 -14 -13 -31 -36 -38 -50 -15 -30 -43 -37 -66 -16 -10 9 -25 14 -33 11 -9
-4 -35 9 -60 28 -42 32 -82 57 -90 57 -2 -1 -28 -10 -58 -21z m-22 -204 c-6
-14 -13 -23 -15 -21 -5 5 15 46 22 46 3 0 -1 -11 -7 -25z"/>
<path d="M6560 9901 c0 -14 48 -68 82 -93 29 -20 32 -20 43 -4 15 20 28 6 19
-19 -5 -13 -2 -15 22 -9 35 8 30 3 39 43 l7 34 -36 -7 c-27 -5 -41 -3 -53 9
-11 12 -18 13 -23 5 -5 -8 -9 -6 -14 6 -5 13 -10 14 -18 6 -8 -8 -16 -4 -30
14 -20 24 -38 32 -38 15z"/>
<path d="M5662 9853 c5 -25 28 -28 28 -4 0 12 -6 21 -16 21 -9 0 -14 -7 -12
-17z"/>
<path d="M5625 9846 c-24 -19 -61 -21 -69 -3 -3 8 -11 4 -23 -13 -10 -14 -32
-39 -50 -56 -18 -17 -33 -37 -33 -45 1 -17 62 -49 94 -49 13 0 40 -16 62 -37
52 -48 129 -96 180 -111 70 -20 74 -18 67 33 -6 50 1 54 53 35 22 -9 29 -8 36
5 10 17 59 20 75 4 8 -8 21 -7 47 2 29 11 43 11 71 0 34 -12 75 -8 75 9 0 4
21 11 46 15 34 5 50 3 62 -8 15 -14 20 -14 36 -1 25 18 50 18 66 -1 9 -11 17
-12 31 -4 28 15 39 3 39 -41 l0 -38 46 14 c62 19 144 73 144 96 0 10 -4 18
-10 18 -5 0 -19 9 -31 21 -23 23 -46 23 -184 0 -233 -39 -285 -42 -480 -29
-154 10 -293 31 -332 50 -20 10 -26 22 -28 56 -2 23 0 42 5 42 13 0 32 -29 26
-39 -12 -19 13 -21 27 -1 7 11 17 17 20 13 4 -3 7 -1 7 6 0 9 -8 11 -24 7 -22
-5 -25 -3 -28 29 -3 34 -4 35 -23 21z"/>
<path d="M5145 9340 c-3 -5 -1 -10 4 -10 6 0 11 5 11 10 0 6 -2 10 -4 10 -3 0
-8 -4 -11 -10z"/>
<path d="M7020 9330 c0 -5 5 -10 10 -10 6 0 10 5 10 10 0 6 -4 10 -10 10 -5 0
-10 -4 -10 -10z"/>
<path d="M6977 9303 c-4 -21 -12 -33 -23 -33 -13 0 -16 -7 -11 -35 3 -21 2
-33 -4 -30 -5 4 -9 13 -9 21 0 10 -5 9 -20 -6 -22 -22 -27 -35 -9 -24 18 11 0
-39 -19 -54 -14 -11 -18 -10 -24 5 -32 79 -41 96 -45 86 -6 -15 -33 -17 -33
-3 0 6 -7 10 -15 10 -11 0 -13 -8 -9 -30 6 -30 -2 -44 -41 -66 -28 -16 -29
-37 -4 -49 12 -6 26 -20 31 -33 7 -20 5 -22 -12 -17 -14 4 -20 2 -20 -9 0 -8
5 -18 10 -21 6 -3 10 -11 10 -17 0 -6 -3 -8 -7 -4 -4 4 -13 -8 -19 -26 -12
-32 -13 -32 -13 -6 -1 28 -21 51 -21 24 0 -9 -8 -16 -19 -16 -29 0 -46 -29
-44 -76 1 -24 -3 -44 -8 -44 -5 0 -9 5 -9 10 0 6 -5 17 -12 24 -10 10 -16 9
-31 -8 l-18 -21 5 27 c6 26 5 26 -27 16 -17 -6 -38 -12 -44 -14 -7 -2 -13 -12
-13 -23 0 -23 -52 -64 -77 -59 -10 1 -24 -1 -30 -5 -8 -5 -13 -4 -13 2 0 20
-32 11 -37 -9 -6 -21 -15 -25 -27 -12 -4 4 -13 7 -19 7 -11 1 -11 6 1 49 7 26
-20 16 -33 -12 -5 -12 -13 -22 -17 -22 -11 0 -10 18 2 25 6 3 10 14 9 23 0 9
-10 -2 -22 -25 -20 -42 -57 -60 -57 -29 0 20 -30 28 -67 17 -30 -9 -53 1 -53
22 0 5 -6 15 -14 23 -19 18 -31 1 -28 -38 2 -28 -11 -38 -23 -18 -5 8 -11 8
-19 1 -16 -13 -27 -4 -19 16 12 31 -22 7 -39 -28 l-18 -34 0 41 c0 67 -11 105
-29 103 -36 -3 -49 2 -54 22 -4 15 -11 20 -21 16 -9 -4 -16 -2 -16 2 0 5 7 11
15 15 20 7 19 39 -3 66 -19 24 -57 18 -48 -7 4 -10 0 -13 -17 -11 -23 3 -39
48 -17 48 6 0 8 5 5 10 -4 6 -11 8 -16 5 -5 -4 -9 1 -9 9 0 9 -7 16 -15 16 -8
0 -15 7 -15 16 0 8 -5 12 -10 9 -6 -3 -19 -3 -30 0 -15 5 -18 12 -14 34 5 25
3 29 -23 34 -15 3 -33 1 -39 -4 -13 -10 -24 -2 -24 18 0 8 5 11 11 7 18 -11
-1 38 -22 59 -25 23 -52 15 -69 -21 -8 -16 -14 -22 -17 -14 -4 9 -12 5 -28
-13 -15 -15 -26 -21 -30 -14 -4 6 -13 8 -21 5 -17 -7 -18 6 -2 22 6 6 8 15 3
19 -4 5 -10 2 -12 -4 -3 -7 -10 -13 -17 -13 -7 0 -18 -12 -24 -26 -7 -14 -17
-22 -22 -19 -13 8 -13 -1 0 -25 7 -12 7 -28 0 -44 -6 -18 -6 -26 1 -26 6 0 7
-4 4 -10 -9 -14 -21 -12 -39 6 -20 20 -20 34 -1 34 8 0 15 9 15 20 0 11 -7 20
-15 20 -12 0 -19 -11 -14 -22 1 -2 -6 -21 -15 -42 -14 -33 -14 -42 -3 -55 8
-9 20 -32 27 -51 8 -19 20 -44 27 -55 7 -11 13 -33 13 -50 0 -22 11 -43 42
-75 23 -25 48 -57 57 -71 9 -14 28 -41 44 -60 15 -19 37 -49 50 -68 12 -19 44
-50 71 -69 27 -19 61 -47 77 -63 16 -16 33 -29 39 -29 6 0 9 -3 6 -8 -8 -14
96 -83 116 -77 10 4 18 1 18 -5 0 -13 99 -120 111 -120 4 0 20 -5 36 -12 77
-32 228 -59 260 -47 l26 10 -21 22 c-21 22 -21 23 -2 35 11 7 20 19 20 27 0
21 17 19 24 -2 5 -15 17 -18 76 -17 175 3 161 0 245 57 43 28 94 67 114 85 20
19 61 55 91 80 64 55 100 92 100 103 0 4 9 10 19 14 18 5 38 39 33 56 0 4 7
13 16 22 9 9 30 27 46 42 19 17 26 33 23 46 -3 12 1 23 13 29 10 6 29 30 41
55 15 30 29 45 42 45 14 0 18 5 14 20 -3 10 1 24 9 31 8 6 14 21 14 33 0 32
38 129 54 138 8 5 17 22 21 38 4 16 11 32 16 35 5 4 9 16 9 28 -1 20 -2 21
-14 5 -11 -15 -14 -16 -28 -2 -14 14 -16 12 -22 -20 -4 -23 -17 -42 -36 -56
-20 -14 -30 -30 -30 -47 l0 -25 -19 23 -19 24 -7 -28 c-5 -20 -11 -25 -18 -18
-15 15 -27 14 -27 -4 0 -9 -6 -12 -15 -9 -8 4 -15 2 -15 -4 0 -14 -24 -22 -40
-12 -7 4 -9 13 -5 19 5 9 10 9 21 0 12 -9 14 -6 14 20 0 31 14 42 23 19 8 -22
25 4 40 60 7 29 16 49 20 46 4 -4 7 0 7 8 0 9 -7 19 -16 22 -11 4 -14 14 -11
29 2 12 1 33 -2 47 -7 24 -7 24 -14 -7z m-1604 -190 c-7 -22 -33 -53 -43 -53
-5 0 -10 6 -13 14 -4 9 6 23 26 35 39 25 38 25 30 4z m1432 -9 c32 -21 34 -48
3 -39 -26 8 -50 34 -42 46 7 12 11 11 39 -7z m15 -81 c-1 -27 -1 -27 -15 -9
-19 25 -19 36 0 36 10 0 15 -10 15 -27z m-1160 -67 c0 -3 -4 -8 -10 -11 -5 -3
-10 -1 -10 4 0 6 5 11 10 11 6 0 10 -2 10 -4z m460 -670 c0 -3 -4 -8 -10 -11
-5 -3 -10 -1 -10 4 0 6 5 11 10 11 6 0 10 -2 10 -4z"/>
<path d="M7198 9305 c5 -28 22 -24 22 6 0 10 -6 19 -14 19 -9 0 -12 -8 -8 -25z"/>
<path d="M6111 9299 c-6 -11 -17 -19 -24 -19 -17 0 -63 -49 -71 -75 -4 -14 1
-24 15 -33 12 -8 18 -9 14 -3 -4 7 4 11 19 11 14 0 29 -7 34 -16 7 -13 13 -14
31 -5 12 7 30 9 41 6 10 -3 21 -1 25 5 8 14 85 5 95 -10 11 -18 45 7 65 49
l17 36 -33 27 c-38 32 -64 36 -73 11 -6 -15 -8 -15 -20 2 -11 15 -16 16 -36 5
-19 -10 -25 -10 -34 2 -18 24 -51 28 -65 7z m19 -19 c0 -5 -2 -10 -4 -10 -3 0
-8 5 -11 10 -3 6 -1 10 4 10 6 0 11 -4 11 -10z"/>
<path d="M5115 9291 c-6 -11 9 -23 19 -14 9 9 7 23 -3 23 -6 0 -12 -4 -16 -9z"/>
<path d="M6816 9285 c4 -8 10 -15 15 -15 4 0 6 7 3 15 -4 8 -10 15 -15 15 -4
0 -6 -7 -3 -15z"/>
<path d="M5211 9264 c-14 -32 5 -29 27 4 13 19 13 22 0 22 -8 0 -20 -12 -27
-26z"/>
<path d="M6010 9274 c0 -8 5 -12 10 -9 6 4 8 11 5 16 -9 14 -15 11 -15 -7z"/>
<path d="M5167 9266 c-4 -10 -5 -21 -2 -24 9 -9 17 6 13 25 -3 17 -4 17 -11
-1z"/>
<path d="M7046 9215 c8 -34 12 -41 20 -33 3 4 -2 19 -10 35 l-16 28 6 -30z"/>
<path d="M5132 9199 c-17 -28 -15 -52 4 -45 9 3 18 6 20 6 8 0 4 49 -4 54 -4
2 -13 -4 -20 -15z"/>
<path d="M5185 9200 c3 -5 8 -10 11 -10 2 0 4 5 4 10 0 6 -5 10 -11 10 -5 0
-7 -4 -4 -10z"/>
<path d="M6520 9100 c0 -5 5 -10 11 -10 5 0 7 5 4 10 -3 6 -8 10 -11 10 -2 0
-4 -4 -4 -10z"/>
<path d="M5810 8964 c0 -8 5 -12 10 -9 6 4 8 11 5 16 -9 14 -15 11 -15 -7z"/>
<path d="M5850 8949 c-7 -11 -10 -23 -7 -25 2 -2 9 7 15 21 14 30 7 33 -8 4z"/>
<path d="M6055 8930 c-3 -5 -1 -10 4 -10 6 0 11 5 11 10 0 6 -2 10 -4 10 -3 0
-8 -4 -11 -10z"/>
<path d="M5165 8275 c3 -27 11 -54 16 -59 5 -6 9 -18 9 -28 0 -10 4 -18 9 -18
8 0 -25 140 -36 150 -3 3 -2 -17 2 -45z"/>
<path d="M7082 8058 c-24 -106 -26 -148 -9 -148 16 0 25 45 29 142 2 66 -7 68
-20 6z"/>
<path d="M4310 7521 c0 -11 178 -151 191 -151 4 0 10 4 14 9 5 9 -15 28 -61
58 -11 7 -45 31 -76 53 -59 42 -68 46 -68 31z"/>
<path d="M7874 7230 c-34 -22 -67 -46 -74 -55 -12 -14 -6 -35 10 -35 13 0 140
110 140 121 0 16 -13 10 -76 -31z"/>
<path d="M2900 7148 c0 -10 4 -18 9 -18 5 0 12 -8 14 -17 4 -14 5 -15 6 -2 0
8 -6 24 -14 35 -13 17 -14 17 -15 2z"/>
<path d="M2937 7093 c-4 -3 -1 -13 7 -22 30 -34 226 -424 226 -449 0 -5 11
-32 25 -60 14 -29 25 -56 25 -62 0 -6 4 -18 9 -28 12 -23 40 -120 45 -157 8
-60 19 -101 37 -137 11 -21 19 -44 19 -52 0 -8 8 -28 18 -45 26 -46 9 -67 -54
-64 l-49 3 30 -16 c47 -24 113 -94 121 -128 4 -17 13 -47 22 -66 27 -63 31
-75 37 -110 3 -19 24 -89 45 -155 21 -66 43 -138 49 -160 5 -22 15 -62 22 -89
7 -26 22 -58 34 -70 12 -12 25 -40 29 -61 10 -51 98 -316 126 -380 36 -81 34
-34 -3 77 -48 141 -78 244 -75 254 1 5 -3 18 -9 29 -6 11 -23 65 -38 120 -15
55 -34 116 -42 135 -8 19 -23 62 -33 95 -21 71 -84 287 -106 365 -45 156 -60
207 -101 340 -60 191 -106 329 -138 415 -15 39 -33 87 -41 108 -28 75 -94 197
-156 286 -63 91 -69 97 -81 84z"/>
<path d="M2470 6809 c0 -5 42 -52 93 -103 93 -93 169 -151 256 -194 25 -13 76
-41 113 -63 36 -21 75 -39 85 -39 11 0 24 -5 30 -11 7 -7 13 -8 17 0 4 6 -14
21 -41 36 -26 14 -76 44 -110 68 -34 23 -102 68 -150 99 -48 31 -131 93 -185
137 -98 83 -108 89 -108 70z"/>
<path d="M9570 6695 c-88 -103 -287 -295 -307 -295 -22 0 -52 -73 -170 -405
-14 -38 -43 -119 -65 -180 -81 -217 -102 -295 -82 -295 11 0 43 45 44 61 0 10
14 43 30 74 20 39 30 71 30 102 0 55 62 216 94 242 9 8 16 22 16 32 0 19 77
119 120 155 14 12 37 33 52 45 15 13 74 65 132 114 99 85 118 105 98 105 -13
0 -163 -116 -272 -210 -91 -78 -95 -80 -98 -55 -7 53 44 116 253 315 136 130
215 228 215 270 0 23 -22 6 -90 -75z"/>
<path d="M3193 6048 c-2 -5 9 -8 26 -8 16 0 32 4 35 9 3 4 -8 8 -25 7 -17 -1
-33 -4 -36 -8z"/>
<path d="M8944 5429 c-12 -15 -25 -65 -44 -164 -6 -33 -15 -73 -20 -90 -5 -16
-12 -50 -15 -75 -4 -25 -17 -67 -29 -95 -21 -48 -21 -51 -4 -68 14 -13 19 -14
22 -5 2 7 9 31 15 53 6 22 15 65 20 95 26 158 42 240 57 282 18 53 17 91 -2
67z"/>
<path d="M7970 5134 c0 -8 5 -12 10 -9 6 3 10 10 10 16 0 5 -4 9 -10 9 -5 0
-10 -7 -10 -16z"/>
<path d="M7950 4958 c0 -19 2 -20 10 -8 13 19 13 30 0 30 -5 0 -10 -10 -10
-22z"/>
<path d="M8790 4930 c0 -5 -7 -10 -17 -10 -9 0 -14 -3 -10 -6 8 -8 47 5 47 17
0 5 -4 9 -10 9 -5 0 -10 -4 -10 -10z"/>
<path d="M8670 4902 c-8 -3 -17 -8 -20 -13 -8 -12 -60 -22 -60 -11 0 5 -6 12
-13 15 -10 4 -13 -2 -9 -19 5 -27 25 -30 62 -9 14 8 43 15 65 16 23 1 31 3 20
6 -11 3 -22 9 -25 13 -3 4 -12 5 -20 2z"/>
<path d="M9380 4874 c-19 -19 -44 -37 -55 -40 -11 -4 -36 -18 -55 -33 -19 -14
-60 -42 -90 -62 -65 -42 -152 -139 -125 -139 46 0 238 121 303 190 67 71 86
146 22 84z"/>
<path d="M4290 4874 c0 -8 5 -12 10 -9 6 4 8 11 5 16 -9 14 -15 11 -15 -7z"/>
<path d="M7923 4810 c-5 -41 -8 -77 -6 -79 7 -10 12 7 14 44 1 22 6 47 9 55 4
8 4 24 0 35 -5 14 -10 -3 -17 -55z"/>
<path d="M8810 4856 c0 -8 -7 -16 -15 -20 -8 -3 -15 -12 -15 -21 0 -8 -4 -15
-10 -15 -5 0 -10 -4 -10 -10 0 -14 13 -13 33 3 19 14 41 77 26 77 -5 0 -9 -6
-9 -14z"/>
<path d="M8410 4843 c0 -15 40 -16 110 -4 49 9 36 12 -57 15 -38 1 -53 -2 -53
-11z"/>
<path d="M4338 4803 c7 -3 16 -2 19 1 4 3 -2 6 -13 5 -11 0 -14 -3 -6 -6z"/>
<path d="M4682 4765 c0 -16 4 -41 8 -55 7 -23 8 -22 8 10 0 19 -3 44 -8 55 -7
17 -9 15 -8 -10z"/>
<path d="M8407 4773 c-22 -6 -15 -34 18 -78 37 -50 23 -116 -15 -70 -14 17
-50 20 -50 5 0 -19 2 -25 9 -23 3 1 7 -13 7 -30 1 -18 5 -51 9 -74 7 -39 6
-42 -18 -48 -17 -5 -24 -12 -20 -21 4 -12 16 -13 52 -8 25 3 50 10 56 15 5 5
17 9 26 9 9 0 19 8 22 19 3 15 11 18 33 13 26 -5 27 -3 16 11 -25 30 -24 68 3
108 14 22 30 39 36 39 30 0 -56 112 -90 117 -8 1 -17 7 -19 12 -4 11 -41 13
-75 4z"/>
<path d="M8162 4740 c-8 -13 -8 -20 -2 -20 6 0 13 7 17 15 9 24 -1 27 -15 5z"/>
<path d="M8114 4710 c-27 -11 -40 -30 -21 -30 8 0 22 9 32 20 20 22 19 23 -11
10z"/>
<path d="M7896 4683 c-2 -10 -7 -34 -11 -53 -3 -19 -12 -62 -20 -95 -7 -33
-19 -87 -25 -120 -7 -33 -16 -73 -20 -90 -5 -16 -18 -75 -30 -130 -12 -55 -26
-113 -32 -130 -6 -16 -18 -66 -28 -110 -10 -44 -26 -111 -35 -150 -10 -38 -19
-82 -22 -97 l-5 -26 103 5 c58 3 113 11 124 18 11 7 48 39 83 70 35 32 66 55
69 51 9 -8 43 24 43 40 0 8 -6 11 -15 8 -8 -4 -15 -2 -16 2 -5 56 -5 72 3 87
5 9 15 17 23 17 8 0 15 9 15 21 0 11 -4 17 -10 14 -20 -12 -9 24 16 54 25 31
54 41 54 20 0 -6 14 -1 31 11 29 21 31 21 43 4 12 -16 14 -16 29 7 8 13 18 35
22 49 6 20 5 23 -6 13 -17 -17 -39 -16 -39 1 0 7 14 40 30 72 17 32 32 72 33
88 2 25 -3 30 -32 41 -19 6 -37 17 -39 23 -2 7 -9 12 -15 12 -7 0 -22 18 -35
40 -25 43 -42 52 -42 20 0 -11 -4 -20 -8 -20 -5 0 -13 -10 -19 -22 -7 -16 -20
-24 -39 -25 -52 -3 -119 -15 -137 -25 -43 -22 -83 34 -58 81 6 11 11 31 11 45
0 14 4 26 9 26 6 0 7 16 4 35 -4 26 -1 41 12 55 12 13 15 27 10 49 -7 34 -21
41 -29 14z m18 -338 c-6 -16 -34 -21 -34 -7 0 13 11 22 26 22 8 0 11 -6 8 -15z
m3 -59 c17 -21 22 -65 14 -118 -1 -3 -11 -4 -23 0 -13 3 -19 1 -15 -5 10 -16
-20 -24 -33 -8 -8 10 -8 15 0 20 6 4 9 13 6 20 -2 7 1 16 9 19 8 3 15 0 17 -6
2 -6 10 -9 17 -7 11 4 10 8 -3 21 -9 9 -16 26 -16 39 0 18 -2 19 -15 9 -22
-18 -27 -8 -9 18 19 28 28 28 51 -2z"/>
<path d="M4212 4660 c0 -20 4 -30 14 -30 8 0 14 -4 14 -10 0 -5 -7 -7 -15 -4
-17 7 -21 -11 -5 -21 6 -3 10 -14 10 -24 0 -10 9 -21 20 -24 12 -3 20 -14 20
-26 0 -24 28 -29 48 -9 9 9 12 9 12 0 0 -7 -5 -12 -12 -12 -9 0 -9 -3 0 -12
14 -14 42 6 42 31 0 9 5 22 12 29 9 9 9 12 -1 12 -8 0 -20 -8 -28 -17 -13 -17
-14 -16 -10 5 4 15 0 22 -10 22 -9 0 -13 6 -9 15 4 12 0 14 -19 9 -17 -4 -25
-2 -25 6 0 9 12 11 40 7 43 -6 45 8 4 23 -13 5 -23 14 -22 20 2 8 -53 36 -78
40 -1 0 -1 -13 -2 -30z"/>
<path d="M4705 4630 c4 -30 11 -65 16 -77 4 -12 11 -50 14 -84 3 -34 10 -70
15 -80 6 -10 13 -45 17 -79 3 -33 9 -60 13 -60 3 0 7 -23 9 -52 1 -29 7 -58
13 -65 5 -7 10 -28 10 -48 0 -19 5 -35 12 -35 6 0 3 -5 -7 -11 -9 -5 -23 -7
-29 -3 -20 12 -52 12 -60 0 -4 -6 -5 -21 -2 -33 6 -21 5 -21 -44 -8 -59 15
-74 23 -67 35 9 14 -28 29 -58 23 -15 -3 -27 -9 -27 -13 0 -5 -14 -4 -32 1
-23 6 -34 5 -40 -4 -5 -8 -8 -7 -8 5 0 9 6 18 13 21 6 2 9 8 4 12 -4 5 -14 0
-21 -11 -12 -15 -17 -17 -27 -6 -19 18 -34 15 -18 -4 12 -15 9 -16 -39 -9 -35
5 -52 3 -52 -4 0 -6 -18 -11 -40 -11 -29 0 -49 7 -72 28 -62 53 -83 77 -85 97
-2 11 -6 43 -9 70 -9 77 -11 219 -2 230 8 12 5 62 -5 72 -12 12 -7 50 8 63 8
7 15 23 15 36 0 34 -39 32 -72 -3 -30 -32 -47 -105 -42 -180 16 -273 16 -283
-5 -283 -11 0 -24 -6 -28 -14 -7 -13 5 -285 12 -294 2 -2 54 6 117 19 96 19
137 22 278 19 379 -8 459 -4 570 29 122 35 162 50 143 50 -13 1 -23 5 -23 10
0 5 -10 9 -22 9 -45 2 -60 9 -72 33 -12 24 -32 29 -72 16 -18 -6 -23 -1 -37
35 -9 24 -21 63 -27 88 -7 25 -15 50 -20 55 -4 6 -10 28 -14 50 -7 43 -31 132
-47 180 -6 17 -11 37 -11 45 0 8 -7 42 -15 75 -8 33 -16 71 -18 83 -2 13 -7
27 -10 30 -4 4 -4 -18 0 -48z m-100 -600 c-6 -10 -40 -8 -51 3 -4 4 7 7 25 7
19 0 30 -4 26 -10z"/>
<path d="M7980 4660 c0 -5 5 -10 10 -10 6 0 10 5 10 10 0 6 -4 10 -10 10 -5 0
-10 -4 -10 -10z"/>
<path d="M9737 4632 l-48 -27 33 -8 c27 -7 35 -5 50 13 15 18 25 53 16 49 -2
0 -25 -13 -51 -27z"/>
<path d="M9480 4517 c-47 -23 -153 -108 -144 -116 2 -2 17 4 32 15 15 11 52
34 83 52 53 30 102 72 83 72 -5 0 -29 -11 -54 -23z"/>
<path d="M3870 4500 c0 -5 5 -10 10 -10 6 0 10 5 10 10 0 6 -4 10 -10 10 -5 0
-10 -4 -10 -10z"/>
<path d="M4275 4470 c-8 -14 3 -30 21 -30 8 0 14 -7 14 -15 0 -8 14 -17 35
-21 42 -8 59 3 31 20 -11 6 -30 21 -43 34 -25 23 -48 28 -58 12z"/>
<path d="M8071 4441 c-8 -5 -9 -11 -3 -15 13 -8 42 3 42 15 0 11 -21 11 -39 0z"/>
<path d="M3890 4410 c0 -5 5 -10 11 -10 5 0 7 5 4 10 -3 6 -8 10 -11 10 -2 0
-4 -4 -4 -10z"/>
<path d="M9774 4388 c-16 -13 -38 -31 -49 -41 -44 -40 -142 -110 -189 -134
-37 -19 -46 -27 -35 -34 31 -20 64 -7 154 61 97 73 155 131 155 155 0 19 -2
19 -36 -7z"/>
<path d="M4342 4349 c2 -7 10 -15 17 -17 8 -3 12 1 9 9 -2 7 -10 15 -17 17 -8
3 -12 -1 -9 -9z"/>
<path d="M9115 4268 c-82 -49 -141 -94 -187 -141 -38 -38 -68 -73 -68 -77 0
-5 10 0 23 11 12 11 67 54 122 95 55 41 118 89 140 107 22 18 54 42 70 54 54
40 22 24 -100 -49z"/>
<path d="M4355 4290 c3 -5 8 -10 11 -10 2 0 4 5 4 10 0 6 -5 10 -11 10 -5 0
-7 -4 -4 -10z"/>
<path d="M3950 4236 c0 -8 4 -17 9 -20 10 -7 23 19 14 28 -11 11 -23 6 -23 -8z"/>
<path d="M3973 4195 c-8 -23 0 -24 20 -3 14 15 15 18 2 18 -9 0 -18 -7 -22
-15z"/>
<path d="M4435 4110 c3 -5 8 -10 11 -10 2 0 4 5 4 10 0 6 -5 10 -11 10 -5 0
-7 -4 -4 -10z"/>
<path d="M4690 4086 c0 -2 9 -6 20 -9 11 -3 20 -1 20 4 0 5 -9 9 -20 9 -11 0
-20 -2 -20 -4z"/>
<path d="M4698 4043 c7 -3 16 -2 19 1 4 3 -2 6 -13 5 -11 0 -14 -3 -6 -6z"/>
<path d="M5036 4036 c21 -15 30 -14 19 3 -3 6 -14 11 -23 11 -13 0 -13 -2 4
-14z"/>
<path d="M8826 4012 l-19 -27 24 22 c12 12 21 24 18 27 -2 2 -13 -8 -23 -22z"/>
<path d="M8145 4004 c-22 -23 -45 -79 -45 -108 0 -18 50 38 75 82 29 52 29 52
10 52 -9 0 -27 -12 -40 -26z"/>
<path d="M5125 3980 c-3 -5 1 -10 9 -10 9 0 16 5 16 10 0 6 -4 10 -9 10 -6 0
-13 -4 -16 -10z"/>
<path d="M9563 3922 c-23 -37 -84 -114 -137 -172 -53 -57 -96 -108 -96 -113 0
-18 26 1 58 44 40 52 87 103 130 142 37 33 95 131 90 152 -2 8 -21 -15 -45
-53z"/>
<path d="M9185 3900 c-16 -16 -34 -30 -41 -30 -7 0 -28 -24 -48 -54 -20 -30
-57 -73 -84 -95 -73 -63 -26 -47 53 17 74 61 160 163 153 182 -2 6 -16 -3 -33
-20z"/>
<path d="M3326 3763 c-3 -4 -26 -6 -50 -4 -28 1 -47 -3 -55 -13 -14 -17 -4
-21 79 -31 59 -8 253 -49 283 -60 9 -4 17 -3 17 3 0 5 9 12 21 15 25 7 20 31
-7 35 -10 2 -29 8 -41 14 -13 6 -26 9 -29 6 -3 -3 -31 0 -62 8 -31 7 -71 13
-89 14 -17 0 -35 5 -38 10 -7 12 -19 13 -29 3z"/>
<path d="M3140 3740 l-25 -8 28 -1 c15 -1 27 4 27 9 0 6 -1 10 -2 9 -2 -1 -14
-5 -28 -9z"/>
<path d="M3185 3740 c-3 -5 -1 -10 4 -10 6 0 11 5 11 10 0 6 -2 10 -4 10 -3 0
-8 -4 -11 -10z"/>
<path d="M4007 3524 c-10 -10 -9 -52 2 -58 5 -3 11 1 15 9 7 18 -7 59 -17 49z"/>
<path d="M3660 3253 c-19 -2 -82 -13 -140 -24 -112 -22 -148 -36 -276 -103
-35 -18 -139 -115 -131 -122 2 -3 22 5 43 17 118 68 275 142 370 174 87 30
130 38 214 43 68 4 96 8 80 13 -26 7 -100 8 -160 2z"/>
<path d="M4931 3078 c-1 -24 -40 -32 -106 -21 -73 13 -74 -5 -2 -42 28 -15 59
-33 68 -41 8 -8 21 -14 27 -14 12 0 27 100 19 122 -4 9 -6 7 -6 -4z"/>
<path d="M5244 2883 c-16 -3 -21 -11 -20 -33 1 -38 6 -37 33 5 12 19 19 34 15
34 -4 -1 -16 -4 -28 -6z"/>
<path d="M5312 2854 c-7 -17 -12 -35 -11 -40 3 -13 -13 -68 -22 -74 -13 -9
-15 -63 -1 -67 7 -3 12 4 12 17 0 20 2 21 16 9 10 -8 12 -15 5 -17 -23 -8 -9
-21 29 -27 22 -4 40 -11 40 -16 0 -5 7 -9 15 -9 8 0 15 -8 15 -17 0 -15 2 -16
10 -3 8 13 11 13 24 0 8 -8 18 -28 22 -43 6 -25 4 -28 -17 -23 -80 16 -126 25
-139 25 -8 0 -42 5 -75 11 -33 6 -67 10 -75 10 -44 0 -105 1 -192 4 -88 3
-115 -3 -90 -18 5 -3 58 -15 118 -26 60 -11 151 -30 203 -42 120 -26 195 -32
246 -21 50 12 83 2 156 -49 31 -21 71 -43 90 -48 19 -5 45 -20 59 -32 41 -37
78 -58 103 -58 14 0 51 -21 87 -50 46 -37 71 -50 95 -50 21 0 51 -13 87 -39
31 -21 72 -44 92 -51 19 -6 44 -22 55 -36 10 -13 23 -24 28 -24 13 0 43 -38
43 -55 0 -8 -9 -15 -20 -15 -10 0 -23 -6 -27 -12 -14 -23 -123 -58 -188 -62
-22 -1 -53 -7 -70 -13 -16 -7 -74 -21 -128 -32 -70 -14 -104 -26 -116 -40 -20
-23 -60 -28 -79 -9 -10 10 -17 10 -34 -1 -15 -9 -23 -10 -28 -1 -5 8 -11 6
-20 -5 -7 -9 -28 -22 -47 -30 -18 -8 -33 -21 -33 -29 0 -9 -4 -16 -10 -16 -5
0 -10 9 -10 20 0 18 -3 19 -20 10 -11 -6 -20 -17 -20 -25 0 -7 -6 -15 -12 -18
-7 -2 -10 -8 -5 -12 4 -5 13 0 20 9 11 16 17 17 36 6 27 -14 51 -7 51 16 0 10
5 14 14 11 8 -3 17 -1 20 6 2 7 5 2 5 -10 1 -12 -2 -23 -6 -26 -5 -2 -2 -2 6
0 7 2 20 -2 29 -9 12 -10 16 -10 19 0 3 6 13 12 23 12 9 0 23 7 30 15 14 17
50 20 50 5 0 -14 27 -13 32 1 2 6 17 11 33 11 17 -1 43 4 58 10 20 8 31 8 39
0 8 -8 19 -7 41 4 16 9 39 17 51 18 11 2 33 8 48 14 14 6 35 11 45 11 37 -1
124 14 129 22 3 5 20 9 38 9 17 0 37 5 43 11 17 17 90 13 120 -7 40 -25 79
-27 137 -5 28 10 64 17 79 16 30 -4 93 -43 136 -85 34 -33 77 -60 94 -60 8 0
30 -17 49 -37 19 -22 45 -39 59 -40 58 -5 72 -8 77 -21 3 -10 7 -10 12 -2 4 6
29 12 56 14 27 1 63 9 80 17 16 9 37 13 46 10 13 -5 10 -12 -16 -42 -28 -33
-37 -37 -95 -42 -35 -3 -67 -9 -70 -14 -3 -4 -15 -9 -26 -10 -46 -3 -202 -34
-221 -44 -11 -6 -31 -12 -45 -13 -43 -5 -69 -17 -69 -32 0 -8 -4 -14 -10 -14
-5 0 -10 5 -10 10 0 6 -9 10 -20 10 -11 0 -20 -4 -20 -8 0 -5 -10 -8 -22 -8
-15 1 -27 -7 -33 -21 -10 -24 -45 -32 -45 -11 0 6 -6 4 -13 -6 -12 -17 -15
-17 -29 -2 -20 19 -25 20 -43 4 -36 -33 -46 -39 -54 -34 -5 3 -24 -12 -42 -34
-24 -28 -39 -38 -52 -34 -13 4 -20 0 -24 -15 -3 -12 -13 -21 -24 -21 -11 0
-19 -7 -19 -15 0 -25 -39 -18 -46 9 -5 21 -9 23 -38 16 -19 -4 -41 -3 -50 2
-14 8 -16 6 -10 -16 4 -16 2 -26 -5 -26 -6 0 -11 3 -11 8 0 4 -19 8 -42 9
-190 7 -247 7 -283 -4 -128 -39 -333 -78 -498 -94 -114 -11 -392 0 -537 21
-36 5 -102 12 -147 16 -64 5 -83 10 -83 22 0 10 -7 13 -22 8 -20 -5 -129 8
-165 19 -17 6 -5 33 15 37 11 2 6 9 -18 20 -39 19 -54 15 -40 -12 14 -27 -10
-43 -54 -34 -21 3 -33 11 -29 16 4 7 -10 8 -41 4 -31 -5 -52 -3 -61 4 -9 7
-26 9 -42 5 -15 -3 -54 -2 -87 4 -107 18 -378 33 -390 21 -6 -6 -10 -58 -9
-134 2 -164 10 -178 97 -173 34 2 84 -2 111 -9 28 -7 60 -13 73 -14 12 0 33
-7 46 -15 12 -8 33 -15 47 -14 13 1 51 -6 84 -14 182 -46 258 -60 327 -62 90
-2 140 -19 130 -43 -5 -15 -4 -15 11 -3 29 23 19 -5 -18 -51 -62 -75 -106
-118 -131 -124 -13 -3 -24 -12 -24 -20 0 -7 -10 -20 -22 -29 -46 -31 -303
-293 -413 -420 -101 -117 -135 -162 -135 -179 0 -3 35 -6 78 -6 l77 1 37 47
c21 26 48 58 60 72 13 14 36 43 53 65 16 22 42 54 57 70 34 38 190 232 203
254 16 27 132 141 143 141 15 0 21 -35 23 -140 1 -52 4 -110 7 -129 l5 -33 17
35 c16 33 30 129 45 299 6 69 24 127 47 145 27 22 71 23 165 4 72 -14 126 -19
203 -16 72 3 128 -1 178 -12 68 -15 74 -15 90 0 11 11 17 35 18 65 1 67 2 68
25 37 20 -25 26 -26 68 -20 25 4 103 7 172 7 130 -1 208 11 319 47 130 43 149
56 187 135 l34 71 -6 -85 c-3 -47 -2 -90 2 -96 13 -17 118 0 213 35 47 17 103
31 125 31 48 0 160 -34 195 -58 37 -27 56 -32 73 -19 18 14 37 78 37 125 0 22
5 32 15 32 8 0 15 -6 15 -13 0 -8 8 -21 18 -30 24 -22 149 -60 180 -54 30 6
45 -26 61 -132 9 -58 17 -80 37 -98 14 -13 29 -23 34 -23 4 0 10 -5 12 -12 2
-6 15 6 28 28 27 44 54 74 69 74 19 0 20 18 3 41 -10 13 -24 39 -32 57 -11 29
-11 35 1 43 16 10 129 12 154 3 30 -12 74 -90 89 -160 9 -38 18 -79 21 -90 5
-24 3 -23 250 -40 49 -3 94 -9 100 -12 20 -13 110 -8 127 6 10 8 24 12 31 9 8
-3 20 0 26 6 9 9 14 9 20 -2 6 -9 11 -10 15 -2 10 16 53 14 79 -4 19 -12 75
-21 182 -29 17 -1 40 -7 52 -14 12 -7 38 -12 57 -12 20 0 36 -5 36 -10 0 -6
11 -8 25 -4 15 4 25 2 25 -5 0 -17 31 -13 73 8 56 28 66 39 59 64 l-5 22 25
-22 c13 -13 32 -23 41 -23 9 0 17 -4 17 -10 0 -5 -4 -10 -10 -10 -5 0 -10 -7
-10 -17 0 -14 2 -14 20 2 18 16 20 16 26 1 3 -9 9 -16 13 -16 10 0 9 44 -2 51
-5 4 -10 43 -11 88 0 44 -4 81 -8 81 -5 0 -8 7 -8 15 0 8 3 15 8 15 4 0 12 11
18 25 8 17 8 24 1 22 -6 -1 -12 11 -13 26 -2 22 1 27 12 23 9 -3 14 1 14 14 0
13 -5 18 -15 14 -17 -7 -21 21 -5 31 6 3 10 15 10 26 0 33 17 13 18 -21 0 -17
5 -54 11 -83 5 -28 12 -88 15 -132 10 -141 29 -314 36 -310 3 2 7 48 8 101 1
54 4 100 7 102 2 3 0 13 -6 24 -8 16 -6 24 9 41 l21 22 -24 50 c-20 45 -21 53
-9 78 9 16 10 27 4 27 -5 0 -10 6 -10 14 0 8 -6 17 -12 19 -10 4 -10 6 0 6 8
1 10 6 6 13 -4 7 -8 58 -9 114 -1 65 -5 108 -13 117 -8 10 -12 41 -10 90 2 51
-1 80 -9 88 -8 8 -59 16 -130 20 -65 4 -172 15 -238 24 -116 16 -144 22 -285
67 -36 11 -84 21 -107 23 -23 2 -45 5 -51 8 -5 4 -71 24 -148 46 -76 21 -152
44 -169 51 -16 6 -46 10 -67 8 -21 -2 -37 1 -37 6 0 12 -182 99 -306 146 -74
27 -111 47 -108 57 1 5 -15 8 -34 8 -39 0 -56 20 -26 29 10 3 1 3 -21 1 -34
-4 -38 -2 -33 15 6 23 -5 25 -32 8 -15 -9 -23 -9 -35 1 -9 7 -13 18 -10 23 3
5 -2 9 -12 7 -28 -3 -70 17 -88 43 -9 12 -16 19 -16 16 0 -4 -21 2 -46 13 -26
10 -78 27 -118 35 -39 9 -75 20 -81 23 -5 4 -30 13 -55 20 -41 12 -70 24 -170
68 -45 20 -43 18 -31 40 6 10 15 38 21 62 10 39 13 41 24 25 12 -16 14 -13 14
23 1 27 -4 43 -14 47 -8 3 -14 14 -14 25 0 11 -9 22 -20 26 -11 3 -20 11 -20
16 0 5 -6 9 -12 9 -7 0 -26 12 -43 28 -20 18 -43 28 -70 30 -21 1 -41 6 -45
10 -5 7 -45 27 -85 42 -40 16 -121 52 -175 78 -30 15 -60 25 -67 24 -6 -1 -14
2 -18 8 -3 5 -19 10 -35 10 -20 0 -33 7 -41 22 -7 14 -14 18 -16 11 -3 -8 -10
-9 -21 -3 -26 13 -54 22 -82 26 -53 7 -67 15 -81 46 -15 35 -34 40 -34 8 -1
-30 -12 -34 -41 -15 -27 17 -28 17 -45 -4 -22 -27 -29 -27 -29 3 0 15 10 32
26 43 18 13 25 26 21 39 -5 18 -5 17 -12 -3 -4 -13 -11 -23 -15 -23 -5 0 -10
10 -12 23 -3 20 -4 19 -16 -9z m2138 -1197 c0 -7 -9 -13 -19 -13 -15 0 -17 3
-9 13 6 7 14 13 19 13 5 0 9 -6 9 -13z m-76 -12 c-4 -8 -16 -15 -28 -15 -20 1
-20 1 4 15 31 18 30 18 24 0z m-284 -245 c0 -25 -13 -36 -47 -38 -43 -3 -83
14 -83 35 1 17 1 17 11 1 11 -19 39 -25 39 -8 0 12 32 26 60 26 11 0 20 -7 20
-16z m60 -20 c0 -5 -7 -10 -15 -10 -8 0 -15 5 -15 10 0 6 7 10 15 10 8 0 15
-4 15 -10z m222 -159 c-3 -29 -1 -32 17 -26 12 4 21 2 21 -4 0 -6 9 -11 21
-11 12 0 30 -11 41 -25 13 -16 29 -25 48 -25 16 0 35 -6 42 -13 20 -20 48 -28
48 -14 0 7 5 4 11 -5 11 -20 39 -24 39 -7 0 6 7 9 15 5 8 -3 15 0 15 7 0 7 4
5 10 -4 5 -9 24 -16 46 -17 20 -1 44 -8 54 -17 27 -24 49 -18 59 18 8 29 9 26
10 -30 1 -34 -3 -65 -9 -68 -5 -3 -10 -1 -10 6 0 8 -5 7 -17 -2 -12 -11 -17
-11 -20 -2 -3 8 -16 10 -36 7 -18 -3 -27 -2 -20 3 6 5 -8 9 -35 10 -86 3 -102
5 -102 15 0 7 -5 6 -13 0 -12 -10 -55 -7 -177 14 -14 2 -56 6 -95 9 -122 10
-247 24 -253 30 -3 3 18 5 46 5 102 0 152 37 152 111 0 22 5 29 18 29 11 0 27
9 37 20 25 28 41 20 37 -19z"/>
<path d="M5195 2850 c-3 -5 -1 -18 4 -27 9 -16 10 -14 11 10 0 28 -5 34 -15
17z"/>
<path d="M3046 2822 c-4 -11 -18 -28 -32 -37 -42 -28 -14 -41 37 -18 24 11 50
18 57 15 6 -2 12 1 12 7 0 7 7 7 24 0 28 -13 86 12 86 36 0 18 -10 19 -33 1
-9 -7 -29 -11 -45 -9 -15 3 -40 5 -57 4 -16 0 -32 4 -36 11 -4 6 -9 3 -13 -10z"/>
<path d="M2970 2790 c0 -5 5 -10 11 -10 5 0 7 5 4 10 -3 6 -8 10 -11 10 -2 0
-4 -4 -4 -10z"/>
<path d="M5210 2695 c0 -8 5 -15 10 -15 6 0 10 7 10 15 0 8 -4 15 -10 15 -5 0
-10 -7 -10 -15z"/>
<path d="M3260 2631 c0 -20 -4 -23 -31 -19 -22 4 -33 0 -40 -14 -5 -10 -16
-18 -24 -18 -8 0 -15 -5 -15 -11 0 -5 5 -7 11 -3 8 4 9 0 4 -15 -10 -32 4 -25
65 29 44 39 52 52 42 62 -9 9 -12 7 -12 -11z"/>
<path d="M3097 2540 c-4 -15 0 -20 13 -20 18 0 34 23 23 34 -13 12 -31 5 -36
-14z"/>
<path d="M2966 2450 c-54 -28 -105 -50 -112 -50 -8 0 -14 -10 -14 -25 0 -14 5
-25 10 -25 15 0 52 22 71 43 9 9 23 15 31 12 9 -4 29 5 46 19 16 15 35 26 41
26 6 0 11 5 11 10 0 6 3 9 8 9 20 -3 32 2 32 16 0 23 -18 18 -124 -35z"/>
<path d="M6441 2294 c0 -11 3 -14 6 -6 3 7 2 16 -1 19 -3 4 -6 -2 -5 -13z"/>
<path d="M6972 2020 c0 -14 2 -19 5 -12 2 6 2 18 0 25 -3 6 -5 1 -5 -13z"/>
<path d="M7120 1870 c0 -5 7 -10 16 -10 8 0 12 5 9 10 -3 6 -10 10 -16 10 -5
0 -9 -4 -9 -10z"/>
<path d="M5422 1718 c-19 -19 -14 -30 8 -18 11 6 20 15 20 20 0 14 -14 12 -28
-2z"/>
<path d="M5357 1706 c-4 -10 -5 -21 -2 -24 9 -9 17 6 13 25 -3 17 -4 17 -11
-1z"/>
<path d="M5715 1711 c-3 -5 -1 -12 4 -15 5 -3 11 1 15 9 6 16 -9 21 -19 6z"/>
<path d="M4290 1369 c0 -11 5 -17 10 -14 6 3 10 13 10 21 0 8 -4 14 -10 14 -5
0 -10 -9 -10 -21z"/>
<path d="M6267 1340 c-4 -17 0 -20 28 -20 24 0 34 5 38 20 4 17 0 20 -28 20
-24 0 -34 -5 -38 -20z"/>
<path d="M3270 1340 c0 -5 5 -10 10 -10 6 0 10 5 10 10 0 6 -4 10 -10 10 -5 0
-10 -4 -10 -10z"/>
<path d="M3351 1330 c-28 -12 -118 -22 -186 -21 -96 1 -109 0 -122 -11 -11 -8
-11 -13 -2 -19 7 -4 12 -36 12 -83 1 -55 5 -76 14 -76 18 0 16 -17 -3 -28 -15
-8 -14 -12 6 -40 19 -26 21 -34 10 -47 -9 -11 -9 -19 -2 -28 8 -9 7 -20 -3
-40 -8 -15 -11 -27 -8 -27 3 0 0 -7 -7 -15 -15 -18 -6 -45 15 -45 8 0 15 -4
15 -10 0 -5 7 -10 15 -10 28 0 15 -15 -33 -37 l-47 -21 53 -1 c60 -1 65 -14
17 -41 -36 -20 -44 -40 -15 -40 20 0 20 -1 5 -16 -13 -14 -14 -19 -3 -25 8 -6
9 -9 1 -9 -6 0 -11 -15 -10 -37 1 -21 -2 -45 -7 -55 -5 -11 -2 -18 11 -21 16
-4 16 -5 1 -6 -22 -1 -23 -17 -2 -29 18 -10 10 -60 -12 -69 -8 -3 -14 -11 -14
-17 0 -9 12 -11 45 -6 48 7 63 15 51 27 -4 4 -11 1 -16 -7 -8 -12 -10 -12 -10
4 0 15 5 17 26 12 24 -7 26 -5 20 19 -6 23 -4 26 15 23 28 -4 38 -28 12 -28
-14 0 -15 -2 -4 -9 8 -5 27 -3 47 5 39 16 199 20 189 4 -3 -5 1 -10 11 -10 14
0 16 -7 11 -36 l-6 -35 19 24 c16 20 22 52 30 168 30 420 42 583 50 664 6 55
6 93 0 99 -13 13 -160 18 -189 6z"/>
<path d="M4450 1324 c0 -8 5 -12 10 -9 6 4 8 11 5 16 -9 14 -15 11 -15 -7z"/>
<path d="M4510 1301 c-10 -19 -8 -21 15 -21 19 0 26 5 23 17 -5 25 -25 27 -38
4z"/>
<path d="M4416 1291 c-19 -21 -12 -28 13 -12 7 5 12 14 9 21 -2 7 -10 4 -22
-9z"/>
<path d="M4900 1300 c0 -4 6 -10 14 -13 9 -4 12 -14 9 -28 -4 -14 -2 -20 4
-16 22 14 20 43 -3 54 -13 6 -24 8 -24 3z"/>
<path d="M4571 1273 c0 -6 -8 -19 -17 -28 -21 -21 -15 -27 9 -10 11 8 17 21
14 32 -3 10 -5 13 -6 6z"/>
<path d="M4636 1254 c-4 -9 -4 -19 -1 -22 2 -3 7 3 11 12 4 9 4 19 1 22 -2 3
-7 -3 -11 -12z"/>
<path d="M7095 636 c3 -44 11 -76 21 -87 9 -10 13 -22 10 -28 -9 -14 20 -191
33 -204 10 -10 17 62 11 116 -1 16 3 18 29 12 24 -5 31 -3 31 9 0 10 -6 13
-15 10 -8 -4 -15 -2 -15 3 0 5 -15 27 -34 48 -20 23 -36 52 -38 72 -4 33 -3
33 31 31 32 -3 36 0 39 24 4 30 -34 61 -48 39 -7 -13 -40 -4 -53 13 -4 6 -5
-20 -2 -58z"/>
<path d="M7419 498 c-1 -2 -2 -19 -4 -38 -10 -122 -18 -182 -32 -235 -8 -33
-19 -82 -23 -110 -5 -27 -12 -65 -16 -82 -6 -31 -5 -33 19 -33 22 0 28 6 36
38 12 44 20 109 26 217 11 180 12 236 4 241 -5 3 -9 4 -10 2z"/>
<path d="M8820 350 c0 -5 4 -10 9 -10 6 0 13 5 16 10 3 6 -1 10 -9 10 -9 0
-16 -4 -16 -10z"/>
<path d="M3408 323 c12 -2 32 -2 45 0 12 2 2 4 -23 4 -25 0 -35 -2 -22 -4z"/>
<path d="M8920 301 c-8 -5 -56 -23 -107 -39 -111 -37 -166 -64 -140 -70 21 -4
73 12 147 45 30 14 74 34 98 44 23 10 42 21 42 24 0 8 -23 5 -40 -4z"/>
</g>
</svg>
